<svg xmlns="http://www.w3.org/2000/svg" version="1.0" viewBox="0 0 1280 1280">
  <defs/>
  <path d="M420 105c-17 2-30 9-43 21a89 89 0 00-20 35l-1 479 1 478 7 17c4 8 6 11 13 19 8 7 11 9 19 13 18 9-5 8 244 8 249 1 226 1 244-8 8-4 11-6 19-14 7-7 9-10 13-18l7-16c1-7 2-30 2-479s-1-472-2-478l-7-17c-4-8-6-11-13-18a71 71 0 00-34-20l-7-2-218-1-224 1zm269 70c2 2 1 10-1 11-1 2-7 2-48 2s-47 0-48-2c-2-1-3-9-1-11s96-2 98 0zm185 465v381H406V259h468v381zm-227 414c20 3 35 19 38 38 4 23-11 46-33 51-26 7-52-10-57-37-4-24 13-48 37-52h15z"/>
</svg>
