<svg version="1" xmlns="http://www.w3.org/2000/svg" width="933.333" height="933.333" viewBox="0 0 700.000000 700.000000"><path d="M222.5 59.2c-11.1 3.7-18.6 10.3-24.1 21.3l-3.5 7L195 347c0 142.7.2 261.2.4 263.2.5 5.2 6 15.7 10.7 20.5 6.3 6.6 14.8 10.4 24.3 11.2 4.5.3 61.3.6 126.1.6h118l6.8-3.2c13.7-6.5 22.4-18.9 23.7-33.8.3-4.4.6-122.5.5-262.5-.1-230.5-.3-254.8-1.7-257.5-.9-1.7-2.4-4.8-3.4-7-2.3-5.1-10.8-13.6-16.4-16.5-9.8-5-5-4.8-134.3-4.8-118.4 0-121.4 0-127.2 2zm154.3 39c.3 2.2-.2 3-2.2 3.7-1.3.6-13.1 1-26.1.9-22.4-.1-23.7-.2-25-2.1-1-1.4-1.1-2.5-.4-3.8.9-1.8 2.6-1.9 27.2-1.6l26.2.2.3 2.7zm101 251.5c.2 197.6.1 208.1-1.5 208.4-1.5.3-244.4.3-252 0l-2.3-.1V141.5h127.8l127.7.1.3 208.1zM360.1 578.2c7.6 3.3 13.5 11.6 14.6 20.7 2 17.5-16.1 31.5-32.9 25.4-10.2-3.6-17.5-14.8-16.5-25 1-10 7.6-18.8 16-21.6 5.2-1.7 14.1-1.5 18.8.5z"/></svg>